<svg width="378" height="171" viewBox="0 0 378 171" fill="none" xmlns="http://www.w3.org/2000/svg">
<g id="Group 62">
<g id="Group 60">
<g id="Group 63">
<rect id="padaet" x="240" y="74" width="138" height="71" fill="#980459"/>
<path id="5,1" d="M303.8 98.12H293.36V106C294.72 105.307 296.147 104.96 297.64 104.96C299.933 104.96 301.773 105.72 303.16 107.24C304.547 108.733 305.24 110.8 305.24 113.44C305.24 115.2 304.853 116.773 304.08 118.16C303.307 119.52 302.213 120.587 300.8 121.36C299.413 122.107 297.8 122.48 295.96 122.48C294.333 122.48 292.88 122.2 291.6 121.64C290.32 121.053 289.133 120.2 288.04 119.08L290.2 116.96C291.053 117.813 291.933 118.453 292.84 118.88C293.747 119.28 294.773 119.48 295.92 119.48C297.627 119.48 298.96 118.947 299.92 117.88C300.907 116.813 301.4 115.307 301.4 113.36C301.4 111.413 300.96 110 300.08 109.12C299.2 108.24 298.013 107.8 296.52 107.8C295.827 107.8 295.187 107.88 294.6 108.04C294.013 108.173 293.387 108.4 292.72 108.72H289.84V95.24H304.32L303.8 98.12ZM311.799 116.92C312.599 116.92 313.266 117.187 313.799 117.72C314.332 118.253 314.599 118.907 314.599 119.68C314.599 120.507 314.359 121.453 313.879 122.52L311.199 128.64H308.559L310.159 122C309.812 121.733 309.532 121.4 309.319 121C309.132 120.6 309.039 120.16 309.039 119.68C309.039 118.907 309.306 118.253 309.839 117.72C310.372 117.187 311.026 116.92 311.799 116.92ZM325.584 95.24V122H321.904V99.16L315.664 102.96L314.064 100.36L322.344 95.24H325.584Z" fill="white"/>
</g>
<g id="Group 65">
<rect id="Rectangle 363" x="240" y="147" width="138" height="24" fill="#B2B1B1"/>
<path id="&#208;&#191;&#208;&#190;&#209;&#129;&#208;&#187;&#208;&#181; &#208;&#191;&#209;&#128;&#208;&#184;&#208;&#181;&#208;&#188;&#208;&#176;" d="M262.424 164L263.384 157.104H260.6L259.64 164H257.624L258.808 155.536H265.624L264.44 164H262.424ZM270.282 164.24C269.194 164.24 268.351 163.925 267.754 163.296C267.167 162.667 266.874 161.792 266.874 160.672C266.874 159.84 267.023 159.013 267.322 158.192C267.631 157.371 268.127 156.683 268.81 156.128C269.493 155.573 270.367 155.296 271.434 155.296C272.522 155.296 273.359 155.616 273.946 156.256C274.543 156.885 274.842 157.749 274.842 158.848C274.842 159.68 274.693 160.507 274.394 161.328C274.095 162.149 273.605 162.843 272.922 163.408C272.239 163.963 271.359 164.24 270.282 164.24ZM270.394 162.688C270.981 162.688 271.45 162.469 271.802 162.032C272.154 161.584 272.399 161.051 272.538 160.432C272.677 159.813 272.746 159.211 272.746 158.624C272.746 157.44 272.271 156.848 271.322 156.848C270.735 156.848 270.266 157.067 269.914 157.504C269.562 157.931 269.311 158.448 269.162 159.056C269.023 159.664 268.954 160.256 268.954 160.832C268.954 162.069 269.434 162.688 270.394 162.688ZM280.621 155.296C281.666 155.296 282.53 155.632 283.213 156.304L282.189 157.52C281.943 157.296 281.698 157.141 281.453 157.056C281.207 156.96 280.935 156.912 280.637 156.912C279.773 156.912 279.149 157.312 278.765 158.112C278.391 158.901 278.205 159.792 278.205 160.784C278.205 161.413 278.333 161.872 278.589 162.16C278.845 162.437 279.218 162.576 279.709 162.576C280.018 162.576 280.306 162.528 280.573 162.432C280.85 162.325 281.165 162.165 281.517 161.952L282.285 163.312C281.399 163.931 280.466 164.24 279.485 164.24C278.407 164.24 277.57 163.925 276.973 163.296C276.375 162.656 276.077 161.781 276.077 160.672C276.077 159.861 276.237 159.045 276.557 158.224C276.877 157.392 277.378 156.699 278.061 156.144C278.743 155.579 279.597 155.296 280.621 155.296ZM290.232 164H288.216L289.192 157.088H287.144L286.744 158.976C286.435 160.363 286.163 161.376 285.928 162.016C285.704 162.656 285.389 163.147 284.984 163.488C284.589 163.829 284.003 164.075 283.224 164.224L282.952 162.656C283.325 162.528 283.597 162.373 283.768 162.192C283.949 162 284.104 161.68 284.232 161.232C284.371 160.773 284.557 159.995 284.792 158.896L285.496 155.536H291.416L290.232 164ZM300.191 157.536C300.191 158.624 299.695 159.413 298.703 159.904C297.711 160.395 296.383 160.725 294.719 160.896C294.762 162.069 295.311 162.656 296.367 162.656C296.751 162.656 297.119 162.597 297.471 162.48C297.823 162.352 298.191 162.149 298.575 161.872L299.359 163.152C298.335 163.877 297.263 164.24 296.143 164.24C295.012 164.24 294.148 163.931 293.551 163.312C292.954 162.683 292.655 161.819 292.655 160.72C292.655 159.867 292.81 159.029 293.119 158.208C293.439 157.376 293.94 156.683 294.623 156.128C295.316 155.573 296.196 155.296 297.263 155.296C297.882 155.296 298.41 155.397 298.847 155.6C299.295 155.803 299.631 156.075 299.855 156.416C300.079 156.757 300.191 157.131 300.191 157.536ZM294.815 159.536C295.946 159.429 296.778 159.221 297.311 158.912C297.844 158.592 298.111 158.16 298.111 157.616C298.111 157.392 298.036 157.195 297.887 157.024C297.738 156.843 297.492 156.752 297.151 156.752C296.479 156.752 295.951 157.019 295.567 157.552C295.194 158.085 294.943 158.747 294.815 159.536ZM309.752 164L310.712 157.104H307.928L306.968 164H304.952L306.136 155.536H312.952L311.768 164H309.752ZM315.386 155.536H317.146L317.13 156.528C317.898 155.707 318.741 155.296 319.658 155.296C320.479 155.296 321.119 155.584 321.578 156.16C322.037 156.736 322.266 157.552 322.266 158.608C322.266 159.504 322.111 160.384 321.802 161.248C321.503 162.101 321.018 162.816 320.346 163.392C319.674 163.957 318.815 164.24 317.77 164.24C317.237 164.24 316.714 164.155 316.202 163.984L315.722 167.28L313.706 167.52L315.386 155.536ZM317.706 162.704C318.271 162.704 318.741 162.491 319.114 162.064C319.487 161.637 319.759 161.109 319.93 160.48C320.101 159.851 320.186 159.216 320.186 158.576C320.186 157.413 319.775 156.832 318.954 156.832C318.602 156.832 318.271 156.928 317.962 157.12C317.663 157.312 317.365 157.579 317.066 157.92L316.442 162.48C316.869 162.629 317.29 162.704 317.706 162.704ZM325.755 164.24C325.094 164.24 324.582 164.059 324.219 163.696C323.867 163.323 323.691 162.811 323.691 162.16C323.691 161.968 323.707 161.771 323.739 161.568L324.587 155.536H326.603L325.787 161.312C325.766 161.525 325.755 161.675 325.755 161.76C325.755 162.069 325.814 162.288 325.931 162.416C326.059 162.544 326.246 162.608 326.491 162.608C326.865 162.608 327.217 162.459 327.547 162.16C327.889 161.861 328.225 161.467 328.555 160.976L329.323 155.536H331.339L330.155 164H328.411L328.491 162.608C328.097 163.131 327.675 163.536 327.227 163.824C326.779 164.101 326.289 164.24 325.755 164.24ZM340.113 157.536C340.113 158.624 339.617 159.413 338.625 159.904C337.633 160.395 336.305 160.725 334.641 160.896C334.683 162.069 335.233 162.656 336.289 162.656C336.673 162.656 337.041 162.597 337.393 162.48C337.745 162.352 338.113 162.149 338.497 161.872L339.281 163.152C338.257 163.877 337.185 164.24 336.065 164.24C334.934 164.24 334.07 163.931 333.473 163.312C332.875 162.683 332.577 161.819 332.577 160.72C332.577 159.867 332.731 159.029 333.041 158.208C333.361 157.376 333.862 156.683 334.545 156.128C335.238 155.573 336.118 155.296 337.185 155.296C337.803 155.296 338.331 155.397 338.769 155.6C339.217 155.803 339.553 156.075 339.777 156.416C340.001 156.757 340.113 157.131 340.113 157.536ZM334.737 159.536C335.867 159.429 336.699 159.221 337.233 158.912C337.766 158.592 338.033 158.16 338.033 157.616C338.033 157.392 337.958 157.195 337.809 157.024C337.659 156.843 337.414 156.752 337.073 156.752C336.401 156.752 335.873 157.019 335.489 157.552C335.115 158.085 334.865 158.747 334.737 159.536ZM349.703 164H347.799L348.023 160.496C348.066 159.941 348.114 159.435 348.167 158.976C348.231 158.507 348.327 157.936 348.455 157.264L346.023 163.104H344.247L343.527 157.28C343.442 158.432 343.298 159.525 343.095 160.56L342.391 164H340.471L342.375 155.536H344.775L345.399 161.28L347.655 155.536H350.151L349.703 164ZM356.28 155.296C357.39 155.296 358.467 155.568 359.512 156.112L358.696 161.792C358.675 161.984 358.664 162.107 358.664 162.16C358.664 162.341 358.696 162.485 358.76 162.592C358.835 162.699 358.963 162.789 359.144 162.864L358.568 164.208C357.576 164.101 356.995 163.632 356.824 162.8C356.12 163.76 355.278 164.24 354.296 164.24C353.432 164.24 352.76 163.941 352.28 163.344C351.811 162.747 351.576 161.941 351.576 160.928C351.576 160.053 351.736 159.184 352.056 158.32C352.387 157.456 352.904 156.736 353.608 156.16C354.312 155.584 355.203 155.296 356.28 155.296ZM356.248 156.8C355.662 156.8 355.176 157.013 354.792 157.44C354.408 157.856 354.126 158.384 353.944 159.024C353.774 159.653 353.688 160.288 353.688 160.928C353.688 162.101 354.078 162.688 354.856 162.688C355.219 162.688 355.55 162.576 355.848 162.352C356.147 162.117 356.456 161.781 356.776 161.344L357.384 157.024C357.043 156.875 356.664 156.8 356.248 156.8Z" fill="black"/>
</g>
</g>
<g id="Group 59">
<g id="Group 62_2">
<rect id="padaet_2" width="138" height="145" fill="#A1A1A1"/>
<path id="1,3" d="M57.92 101.24V128H54.24V105.16L48 108.96L46.4 106.36L54.68 101.24H57.92ZM67.0647 122.92C67.8647 122.92 68.5314 123.187 69.0647 123.72C69.598 124.253 69.8647 124.907 69.8647 125.68C69.8647 126.507 69.6247 127.453 69.1447 128.52L66.4647 134.64H63.8247L65.4247 128C65.078 127.733 64.798 127.4 64.5847 127C64.398 126.6 64.3047 126.16 64.3047 125.68C64.3047 124.907 64.5714 124.253 65.1047 123.72C65.638 123.187 66.2914 122.92 67.0647 122.92ZM81.2656 100.84C82.919 100.84 84.3323 101.147 85.5056 101.76C86.7056 102.373 87.6123 103.2 88.2256 104.24C88.8656 105.28 89.1856 106.413 89.1856 107.64C89.1856 109.267 88.7056 110.613 87.7456 111.68C86.8123 112.72 85.559 113.427 83.9856 113.8C85.7723 113.96 87.2256 114.6 88.3456 115.72C89.4656 116.84 90.0256 118.36 90.0256 120.28C90.0256 121.827 89.6523 123.227 88.9056 124.48C88.159 125.733 87.0923 126.72 85.7056 127.44C84.319 128.133 82.719 128.48 80.9056 128.48C79.279 128.48 77.7856 128.187 76.4256 127.6C75.0656 126.987 73.879 126.08 72.8656 124.88L75.0656 122.84C75.9456 123.747 76.839 124.413 77.7456 124.84C78.679 125.267 79.6923 125.48 80.7856 125.48C82.4656 125.48 83.7856 125.013 84.7456 124.08C85.7056 123.12 86.1856 121.84 86.1856 120.24C86.1856 118.48 85.7323 117.24 84.8256 116.52C83.919 115.8 82.599 115.44 80.8656 115.44H78.8656L79.3056 112.6H80.6656C82.0523 112.6 83.199 112.187 84.1056 111.36C85.039 110.533 85.5056 109.373 85.5056 107.88C85.5056 106.627 85.1056 105.64 84.3056 104.92C83.5056 104.173 82.4256 103.8 81.0656 103.8C80.0256 103.8 79.0656 103.987 78.1856 104.36C77.3323 104.733 76.4523 105.347 75.5456 106.2L73.6256 104C75.8923 101.893 78.439 100.84 81.2656 100.84Z" fill="white"/>
</g>
<g id="Group 64">
<rect id="Rectangle 361" y="147" width="138" height="24" fill="#B2B1B1"/>
<path id="&#208;&#180;&#208;&#190; &#208;&#191;&#209;&#128;&#208;&#184;&#208;&#181;&#208;&#188;&#208;&#176;" d="M33 165.24C32.3493 165.24 31.768 165.107 31.256 164.84C30.744 164.563 30.3387 164.168 30.04 163.656C29.7413 163.133 29.592 162.52 29.592 161.816C29.592 161.005 29.7307 160.232 30.008 159.496C30.296 158.76 30.7227 158.163 31.288 157.704C31.864 157.235 32.5627 157 33.384 157C34.2587 157 34.968 157.32 35.512 157.96V157.88C35.5013 157.005 35.3947 156.339 35.192 155.88C34.9893 155.421 34.6107 155.08 34.056 154.856C33.5013 154.632 32.6693 154.472 31.56 154.376L32.008 152.936C33.512 153.032 34.6533 153.293 35.432 153.72C36.2213 154.136 36.76 154.739 37.048 155.528C37.3467 156.307 37.496 157.373 37.496 158.728C37.496 160.701 37.1173 162.28 36.36 163.464C35.6133 164.648 34.4933 165.24 33 165.24ZM33.064 163.704C33.8427 163.704 34.424 163.304 34.808 162.504C35.192 161.693 35.3947 160.685 35.416 159.48C35.0107 158.819 34.4507 158.488 33.736 158.488C33 158.488 32.4667 158.824 32.136 159.496C31.816 160.157 31.656 160.936 31.656 161.832C31.656 162.461 31.7787 162.931 32.024 163.24C32.2693 163.549 32.616 163.704 33.064 163.704ZM42.1414 165.24C41.0534 165.24 40.2107 164.925 39.6134 164.296C39.0267 163.667 38.7334 162.792 38.7334 161.672C38.7334 160.84 38.8827 160.013 39.1814 159.192C39.4907 158.371 39.9867 157.683 40.6694 157.128C41.352 156.573 42.2267 156.296 43.2934 156.296C44.3814 156.296 45.2187 156.616 45.8054 157.256C46.4027 157.885 46.7014 158.749 46.7014 159.848C46.7014 160.68 46.552 161.507 46.2534 162.328C45.9547 163.149 45.464 163.843 44.7814 164.408C44.0987 164.963 43.2187 165.24 42.1414 165.24ZM42.2534 163.688C42.84 163.688 43.3094 163.469 43.6614 163.032C44.0134 162.584 44.2587 162.051 44.3974 161.432C44.536 160.813 44.6054 160.211 44.6054 159.624C44.6054 158.44 44.1307 157.848 43.1814 157.848C42.5947 157.848 42.1254 158.067 41.7734 158.504C41.4214 158.931 41.1707 159.448 41.0214 160.056C40.8827 160.664 40.8134 161.256 40.8134 161.832C40.8134 163.069 41.2934 163.688 42.2534 163.688ZM56.6271 165L57.5871 158.104H54.8031L53.8431 165H51.8271L53.0111 156.536H59.8271L58.6431 165H56.6271ZM62.2611 156.536H64.0211L64.0051 157.528C64.7731 156.707 65.6158 156.296 66.5331 156.296C67.3545 156.296 67.9945 156.584 68.4531 157.16C68.9118 157.736 69.1411 158.552 69.1411 159.608C69.1411 160.504 68.9865 161.384 68.6771 162.248C68.3785 163.101 67.8931 163.816 67.2211 164.392C66.5491 164.957 65.6905 165.24 64.6451 165.24C64.1118 165.24 63.5891 165.155 63.0771 164.984L62.5971 168.28L60.5811 168.52L62.2611 156.536ZM64.5811 163.704C65.1465 163.704 65.6158 163.491 65.9891 163.064C66.3625 162.637 66.6345 162.109 66.8051 161.48C66.9758 160.851 67.0611 160.216 67.0611 159.576C67.0611 158.413 66.6505 157.832 65.8291 157.832C65.4771 157.832 65.1465 157.928 64.8371 158.12C64.5385 158.312 64.2398 158.579 63.9411 158.92L63.3171 163.48C63.7438 163.629 64.1651 163.704 64.5811 163.704ZM72.6304 165.24C71.969 165.24 71.457 165.059 71.0944 164.696C70.7424 164.323 70.5664 163.811 70.5664 163.16C70.5664 162.968 70.5824 162.771 70.6144 162.568L71.4624 156.536H73.4784L72.6624 162.312C72.641 162.525 72.6304 162.675 72.6304 162.76C72.6304 163.069 72.689 163.288 72.8064 163.416C72.9344 163.544 73.121 163.608 73.3664 163.608C73.7397 163.608 74.0917 163.459 74.4224 163.16C74.7637 162.861 75.0997 162.467 75.4304 161.976L76.1984 156.536H78.2144L77.0304 165H75.2864L75.3664 163.608C74.9717 164.131 74.5504 164.536 74.1024 164.824C73.6544 165.101 73.1637 165.24 72.6304 165.24ZM86.9878 158.536C86.9878 159.624 86.4918 160.413 85.4998 160.904C84.5078 161.395 83.1798 161.725 81.5158 161.896C81.5584 163.069 82.1078 163.656 83.1638 163.656C83.5478 163.656 83.9158 163.597 84.2678 163.48C84.6198 163.352 84.9878 163.149 85.3718 162.872L86.1558 164.152C85.1318 164.877 84.0598 165.24 82.9398 165.24C81.8091 165.24 80.9451 164.931 80.3478 164.312C79.7504 163.683 79.4518 162.819 79.4518 161.72C79.4518 160.867 79.6064 160.029 79.9158 159.208C80.2358 158.376 80.7371 157.683 81.4198 157.128C82.1131 156.573 82.9931 156.296 84.0598 156.296C84.6784 156.296 85.2064 156.397 85.6438 156.6C86.0918 156.803 86.4278 157.075 86.6518 157.416C86.8758 157.757 86.9878 158.131 86.9878 158.536ZM81.6118 160.536C82.7424 160.429 83.5744 160.221 84.1078 159.912C84.6411 159.592 84.9078 159.16 84.9078 158.616C84.9078 158.392 84.8331 158.195 84.6838 158.024C84.5344 157.843 84.2891 157.752 83.9478 157.752C83.2758 157.752 82.7478 158.019 82.3638 158.552C81.9904 159.085 81.7398 159.747 81.6118 160.536ZM96.578 165H94.674L94.898 161.496C94.9407 160.941 94.9887 160.435 95.042 159.976C95.106 159.507 95.202 158.936 95.33 158.264L92.898 164.104H91.122L90.402 158.28C90.3167 159.432 90.1727 160.525 89.97 161.56L89.266 165H87.346L89.25 156.536H91.65L92.274 162.28L94.53 156.536H97.026L96.578 165ZM103.155 156.296C104.265 156.296 105.342 156.568 106.387 157.112L105.571 162.792C105.55 162.984 105.539 163.107 105.539 163.16C105.539 163.341 105.571 163.485 105.635 163.592C105.71 163.699 105.838 163.789 106.019 163.864L105.443 165.208C104.451 165.101 103.87 164.632 103.699 163.8C102.995 164.76 102.153 165.24 101.171 165.24C100.307 165.24 99.6354 164.941 99.1554 164.344C98.686 163.747 98.4514 162.941 98.4514 161.928C98.4514 161.053 98.6114 160.184 98.9314 159.32C99.262 158.456 99.7794 157.736 100.483 157.16C101.187 156.584 102.078 156.296 103.155 156.296ZM103.123 157.8C102.537 157.8 102.051 158.013 101.667 158.44C101.283 158.856 101.001 159.384 100.819 160.024C100.649 160.653 100.563 161.288 100.563 161.928C100.563 163.101 100.953 163.688 101.731 163.688C102.094 163.688 102.425 163.576 102.723 163.352C103.022 163.117 103.331 162.781 103.651 162.344L104.259 158.024C103.918 157.875 103.539 157.8 103.123 157.8Z" fill="black"/>
</g>
</g>
<g id="Vector">
<path d="M148 84.3779C163.621 84.3779 172.379 84.3779 188 84.3779V119.378H148V84.3779Z" fill="url(#paint0_linear)"/>
<path d="M229.5 101.878L188 131.756V72L229.5 101.878Z" fill="url(#paint1_linear)"/>
</g>
</g>
<defs>
<linearGradient id="paint0_linear" x1="229" y1="102" x2="148" y2="102" gradientUnits="userSpaceOnUse">
<stop stop-color="#EA3C86"/>
<stop offset="0.463542" stop-color="#EA3D86"/>
<stop offset="1" stop-color="white" stop-opacity="0"/>
</linearGradient>
<linearGradient id="paint1_linear" x1="229" y1="102" x2="148" y2="102" gradientUnits="userSpaceOnUse">
<stop stop-color="#EA3C86"/>
<stop offset="0.463542" stop-color="#EA3D86"/>
<stop offset="1" stop-color="white" stop-opacity="0"/>
</linearGradient>
</defs>
</svg>
