<?xml version="1.0" encoding="utf-8"?>
<!-- Generator: Adobe Illustrator 24.0.0, SVG Export Plug-In . SVG Version: 6.00 Build 0)  -->
<svg version="1.1" id="Слой_1" xmlns="http://www.w3.org/2000/svg" xmlns:xlink="http://www.w3.org/1999/xlink" x="0px" y="0px"
	 viewBox="0 0 595.28 841.89" style="enable-background:new 0 0 595.28 841.89;" xml:space="preserve">
<style type="text/css">
	.st0{fill:none;stroke:#E50068;stroke-width:1.5373;stroke-miterlimit:10;}
</style>
<g>
	<path class="st0" d="M294.86,390.01c-0.2,0.16-0.45,0.38-0.74,0.65c1.46,0.64,2.59,2.19,2.89,2.54c0.74-1.8,0.44-3.72,0.44-3.72
		S295.63,389.4,294.86,390.01 M297.99,389.49c0,0-0.35,2.22,0.63,4.13c0.51-0.92,1.41-1.99,2.88-2.79
		c-0.37-0.35-0.68-0.63-0.92-0.82C299.8,389.4,297.99,389.49,297.99,389.49 M300.95,442.9c1.16,0.59,1.91,1.72,2.2,3.15
		c0.33,1.39-0.06,2.49-0.95,3.5c-0.78,0.84-1.83,1.43-2.92,1.75c1.41,0.2,2.5,0.81,3.6,1.54c0.15-0.11,0.31-0.22,0.46-0.34
		c1.51-1.14,2.99-3.49,2.76-6.23c-0.14-2.28-1.25-4.83-3.12-6.17c-1.83-1.38-3.95-1.65-5.79-1.61c-1.54,0.01-3.13-0.21-4.43-0.81
		c-1.34-0.64-2.07-1.52-2.12-2.61c-0.04-1.37,0.4-3.03,1.26-3.89c0.37-0.41,0.84-0.74,1.38-1.01c-0.18-0.05-0.36-0.11-0.55-0.16
		c-1.32-0.36-2.58-0.86-3.78-1.56c-1.31,1.75-1.93,4.09-1.91,6.21c-0.02,1.4,0.39,2.96,1.17,4.1c0.77,1.15,1.77,1.88,2.73,2.38
		c1.94,0.97,3.86,1.17,5.7,1.17C298.44,442.22,299.74,442.26,300.95,442.9 M300.56,464.31c-0.71-0.97-1.77-1.68-2.88-2.05
		c-0.93-0.32-1.88-0.78-2.6-1.46c-1.44-1.13-1.58-4.38-0.01-5.46c0.15-0.11,0.3-0.21,0.47-0.29c-0.84-0.35-1.68-0.73-2.53-1.05
		c-0.69,0.96-1.12,2.18-1.12,3.32c-0.1,1.72,0.47,3.57,1.52,4.66c2.1,2.28,4.63,1.85,5.78,3.09c1.34,1.13,1.5,3.02,1.3,4.44
		c-0.44,3.03-2.68,2.76-2.57,2.98c-0.06,0.09,0.25,0.27,0.96,0.19c0.68-0.03,1.91-0.74,2.41-2.4c0.26-0.79,0.39-1.71,0.37-2.72
		C301.64,466.49,301.29,465.27,300.56,464.31 M295.16,469.5c-0.19-1.42-0.04-3.31,1.31-4.44c0.1-0.1,0.2-0.2,0.32-0.28
		c-0.49-0.25-0.97-0.51-1.46-0.77c-0.08,0.1-0.16,0.19-0.24,0.3c-0.73,0.96-1.08,2.18-1.1,3.25c-0.02,1.02,0.11,1.93,0.37,2.72
		c0.5,1.65,1.74,2.37,2.41,2.4c0.71,0.08,1.02-0.1,0.96-0.19C297.84,472.27,295.6,472.54,295.16,469.5 M303.76,457.32
		c0.01-1.79-1.06-3.8-2.55-4.65c-1.36-0.94-3.25-1.02-4.37-1.25c-1.26-0.27-2.5-0.91-3.39-1.87c-0.89-1.01-1.29-2.11-0.95-3.5
		c0.24-1.17,0.79-2.14,1.63-2.78c-0.24-0.05-0.49-0.11-0.73-0.18c-0.86-0.27-1.66-0.71-2.49-1.06c-0.8,1.28-1.27,2.82-1.36,4.25
		c-0.23,2.74,1.24,5.09,2.76,6.23c1.55,1.22,3.24,1.76,4.86,1.91c1.49,0.07,2.57,0.29,3.41,0.93c1.57,1.08,1.43,4.33-0.01,5.46
		c-0.53,0.51-1.2,0.89-1.88,1.19c0.74,0.32,1.45,0.7,2.15,1.13c0.48-0.29,0.96-0.65,1.41-1.15
		C303.29,460.88,303.86,459.04,303.76,457.32 M305.88,427.54c-1.82-1.77-4.01-2.41-6.01-2.64c-2.17-0.18-3.65-0.03-5.31-0.39
		c-3.22-0.46-6.5-2.57-6.22-4.65c-0.03-2.57,1.68-4.24,4.14-5.13c-1.96-0.29-3.89-0.82-5.72-1.85c-0.07-0.04-0.13-0.08-0.19-0.13
		c-1.73,1.86-2.7,4.84-2.52,7.6c0.07,1.61,0.68,3.25,1.52,4.4c0.85,1.16,1.84,1.94,2.83,2.54c1.99,1.19,4,1.69,6,1.99
		c2.03,0.31,4.09,0.04,5.51,0.23c1.55,0.18,2.96,0.72,3.82,1.68c0.86,0.86,1.3,2.52,1.26,3.89c-0.04,1.09-0.78,1.97-2.12,2.61
		c-0.42,0.19-0.87,0.34-1.33,0.46c1.4,0.65,2.69,1.59,4.05,2.46c0.66-0.45,1.29-1.04,1.83-1.84c0.79-1.14,1.2-2.7,1.17-4.1
		C308.62,432.15,307.73,429.32,305.88,427.54 M297.75,393.21l-1.5,4.08c0.01,3.21,0.03,6.59,0.05,10.07h2.86
		c0.03-3.48,0.06-6.86,0.08-10.07L297.75,393.21z M297.76,387.57l1.54-3.36c0-0.69,0-1.36,0-2.01c0-0.91-0.69-1.31-1.55-1.31
		c-0.85,0-1.55,0.27-1.55,1.31c0,0.65,0,1.32,0,2.01L297.76,387.57z M296.36,414.84c0.02,2.99,0.05,6.02,0.08,9.05h2.56
		c0.04-3.03,0.07-6.06,0.1-9.05H296.36z M296.49,430.21c0.03,2.68,0.06,5.34,0.09,7.96h2.22c0.04-2.61,0.07-5.27,0.11-7.96H296.49z
		 M298.61,450.7c0.05-2.57,0.09-5.25,0.13-8h-2.1c0.04,2.75,0.08,5.42,0.12,8H298.61z M298.4,461.61c0.05-2.05,0.09-4.24,0.13-6.54
		h-1.7c0.04,2.3,0.08,4.49,0.13,6.54H298.4z M297.04,465.05c0.21,8.25,0.45,13.49,0.72,13.31c0.18-0.12,0.37-5.29,0.56-13.31H297.04
		z M297.76,368.8c-2.15,0-3.89,2.04-3.89,4.56c0,2.52,1.74,4.56,3.89,4.56c2.14,0,3.89-2.04,3.89-4.56
		C301.64,370.85,299.9,368.8,297.76,368.8 M297.76,378.35c-1.26,0.06-2.35-0.8-2.7-0.42c-0.4,0.33,0.61,2.65,2.7,2.66
		c2.09-0.01,3.1-2.33,2.7-2.66C300.11,377.54,299.01,378.41,297.76,378.35 M311.59,420.35c-0.07,1.61-0.68,3.25-1.52,4.4
		c-0.85,1.16-1.84,1.94-2.83,2.54c0,0-0.01,0.01-0.01,0.01c-1.45-1.45-3.24-2.45-5.11-3c2.85-0.7,5.45-2.59,5.2-4.45
		c0.04-2.99-2.28-4.77-5.39-5.5c-5.58-1.29-14.7,1.06-20.07-7.26c-0.6-1.05-1.03-2.32-1.18-3.6c-0.17-1.32-0.11-2.23-0.01-3.42
		c0.21-2.28,1.3-4.7,2.84-6.14c3.13-2.84,6.21-2.97,8.77-3.26c1.34-0.06,3.49,1.68,4.4,3.34c0,0.27-0.08,0.52-0.23,0.75
		c-0.7,1.1-2.83,1.64-3.9,1.69c-2.13,0.14-3.33-2.47-6.08,1.04c-0.64,0.62-0.83,2.23-0.98,3.4c-0.11,1.36-0.08,2.33,0.45,3.17
		c1.01,1.9,3.84,3.36,6.77,3.91c1.54,0.31,2.97,0.38,4.77,0.44c1.84,0.07,3.73,0.26,5.67,0.82c1.92,0.58,3.98,1.44,5.77,3.32
		C310.75,414.4,311.78,417.5,311.59,420.35 M292.03,392.31c0,0.27,0.18,0.48,0.41,0.48c0.23,0,0.41-0.21,0.41-0.48
		c0-0.26-0.18-0.48-0.41-0.48C292.21,391.83,292.03,392.05,292.03,392.31 M314.98,403.5c-0.15,1.29-0.58,2.56-1.18,3.6
		c-1.29,1.99-2.79,3.37-4.41,4.34c-1.03-0.77-2.14-1.41-3.26-1.97c-0.96-0.49-1.97-1.05-2.99-1.35c-0.13-0.04-0.26-0.07-0.39-0.1
		c0.07-0.01,0.13-0.02,0.2-0.04c2.94-0.55,5.76-2.02,6.77-3.91c0.53-0.84,0.56-1.81,0.45-3.17c-0.15-1.17-0.34-2.78-0.98-3.4
		c-2.75-3.51-3.95-0.9-6.08-1.04c-1.29-0.06-4.12-0.84-4.12-2.44c0.91-1.65,3.05-3.4,4.4-3.34c2.56,0.28,5.64,0.42,8.77,3.26
		c1.54,1.44,2.62,3.86,2.84,6.14C315.1,401.27,315.15,402.18,314.98,403.5 M303.65,392.31c0-0.26-0.18-0.48-0.41-0.48
		c-0.23,0-0.41,0.21-0.41,0.48c0,0.27,0.18,0.48,0.41,0.48C303.47,392.79,303.65,392.58,303.65,392.31"/>
	<g>
		<path class="st0" d="M299.87,381.02c1.01,3.68,7.85,1.12,4.47-3.1c-1.3-1.63-2.46-2.04-2.62-4.44c-0.13-1.99,0.8-3.88,2.28-5.24
			c5.98-5.52,18.05-2.89,24.51-0.42c5.44,2.08,10.57,4.58,16.36,4.39c4.93-0.16,10.32-1.72,13.9-5.13c-1.4,3.74-0.47,4.96-6.49,8.8
			c-3.26,2.08-9.53,2.43-13.12,1.79c-6.83-1.2-11.49-4.56-18.3-5.83c-3.82-0.71-13.46-2.85-13.21,3.55
			c0.12,3.16,0.89,5.21-1.79,7.59c-2.78,2.47-4.7,1.07-5.9-1.52"/>
		<path class="st0" d="M309.52,372.96c0,0,0.17-0.05,0.5-0.16c0.33-0.09,0.82-0.21,1.46-0.3c0.63-0.07,1.41-0.17,2.3-0.17
			c0.89-0.01,1.9,0,3,0.11c1.1,0.12,2.29,0.26,3.55,0.61c0.64,0.17,1.28,0.39,1.98,0.74c0.29,0.15,0.58,0.3,0.87,0.45
			c0.3,0.17,0.61,0.36,0.91,0.55c1.18,0.76,2.32,1.55,3.47,2.32c1.15,0.79,2.26,1.5,3.47,2.02c1.12,0.45,2.46,0.79,3.75,0.98
			c1.31,0.2,2.63,0.29,3.91,0.3c1.29-0.01,2.53-0.08,3.72-0.21c1.18-0.14,2.29-0.34,3.31-0.56c2.03-0.47,3.69-1.08,4.81-1.61
			c0.56-0.27,1-0.5,1.29-0.67c0.29-0.17,0.45-0.26,0.45-0.26s-0.12,0.14-0.35,0.39c-0.23,0.25-0.59,0.61-1.09,1.01
			c-0.99,0.82-2.55,1.86-4.63,2.67c-1.03,0.42-2.18,0.8-3.43,1.08c-1.25,0.29-2.59,0.51-3.99,0.6c-1.4,0.09-2.87,0.1-4.36-0.09
			c-0.75-0.08-1.5-0.21-2.25-0.4c-0.76-0.19-1.47-0.4-2.26-0.75c-1.41-0.64-2.72-1.52-3.87-2.36c-1.14-0.87-2.22-1.75-3.26-2.51
			c-0.25-0.19-0.5-0.37-0.75-0.56c-0.27-0.19-0.55-0.37-0.81-0.55c-0.43-0.27-0.96-0.53-1.5-0.74c-1.08-0.42-2.17-0.76-3.2-1
			c-1.02-0.24-1.97-0.46-2.82-0.59c-0.85-0.14-1.6-0.24-2.22-0.3c-0.62-0.05-1.1-0.07-1.44-0.07
			C309.7,372.96,309.52,372.96,309.52,372.96z"/>
		<path class="st0" d="M309.37,374.29c0,0,0.14-0.02,0.41-0.06c0.27-0.03,0.66-0.11,1.18-0.12c0.52-0.03,1.15-0.03,1.87,0.03
			c0.72,0.07,1.54,0.18,2.4,0.43c1.75,0.44,3.7,1.34,5.55,2.61c0.93,0.63,1.83,1.36,2.69,2.14c0.42,0.37,0.89,0.83,1.24,1.17
			l0.31,0.29l0.25,0.21c0.18,0.14,0.38,0.29,0.59,0.42c1.66,1.12,3.72,1.82,5.69,2.27c1.98,0.46,3.9,0.63,5.55,0.66
			c1.66,0.01,3.05-0.13,4.02-0.31c0.48-0.1,0.87-0.18,1.13-0.25c0.26-0.07,0.4-0.11,0.4-0.11s-0.12,0.09-0.34,0.25
			c-0.22,0.15-0.56,0.39-1.02,0.62c-0.91,0.49-2.3,1.04-4.06,1.36c-0.88,0.16-1.84,0.29-2.87,0.31c-1.03,0.03-2.12,0.01-3.24-0.14
			c-2.23-0.3-4.64-0.95-6.8-2.38c-0.27-0.18-0.52-0.37-0.79-0.59l-0.4-0.34l-0.31-0.3c-0.4-0.4-0.8-0.8-1.19-1.2
			c-0.78-0.75-1.54-1.49-2.33-2.13c-0.79-0.64-1.56-1.25-2.34-1.76c-0.79-0.49-1.54-0.96-2.29-1.31c-0.74-0.36-1.44-0.64-2.08-0.88
			c-0.65-0.21-1.22-0.4-1.69-0.51c-0.48-0.13-0.88-0.21-1.14-0.27C309.51,374.33,309.37,374.29,309.37,374.29z"/>
		<path class="st0" d="M308.75,377.27c0,0,0.12-0.02,0.33-0.05c0.22-0.02,0.53-0.1,0.95-0.09c0.84-0.04,2.07,0.07,3.45,0.64
			c1.39,0.53,2.82,1.51,4.15,2.64c1.34,1.13,2.62,2.37,3.96,3.43c0.66,0.53,1.35,1,2.04,1.42c0.7,0.42,1.41,0.74,2.13,1.03
			c0.73,0.25,1.45,0.49,2.17,0.62c0.71,0.15,1.41,0.26,2.06,0.31c0.65,0.07,1.27,0.08,1.81,0.12c0.54-0.01,1.03,0.03,1.43,0.02
			c0.8-0.02,1.28,0,1.28,0s-0.41,0.21-1.17,0.53c-0.38,0.16-0.85,0.32-1.4,0.49c-0.55,0.14-1.18,0.34-1.9,0.42
			c-0.71,0.12-1.5,0.19-2.34,0.16c-0.84,0-1.74-0.13-2.65-0.34c-0.9-0.24-1.84-0.56-2.71-1.02c-0.87-0.45-1.7-1.01-2.46-1.6
			c-1.52-1.22-2.78-2.6-3.92-3.81c-1.14-1.22-2.2-2.27-3.23-3.03c-0.52-0.38-1.02-0.68-1.49-0.93c-0.48-0.23-0.91-0.43-1.27-0.55
			c-0.36-0.14-0.68-0.23-0.89-0.29C308.86,377.3,308.75,377.27,308.75,377.27z"/>
		<path class="st0" d="M309.98,380.56c0,0,0.08,0.01,0.23,0.02c0.15,0.02,0.36,0.03,0.63,0.12c0.56,0.14,1.32,0.48,2.08,1.11
			c0.77,0.62,1.48,1.49,2.14,2.38c0.32,0.45,0.64,0.89,0.96,1.31l0.24,0.31l0.12,0.15l0.01,0.01l0.01,0
			c0.05,0.06-0.07-0.08-0.06-0.07l0.02,0.02l0.04,0.04l0.08,0.08c0.09,0.09,0.22,0.25,0.28,0.28c0.07,0.05,0.13,0.1,0.19,0.16
			c0.36,0.26,0.77,0.54,1.23,0.77c0.45,0.24,0.92,0.45,1.39,0.66c0.95,0.4,1.88,0.73,2.7,1c0.41,0.14,0.8,0.26,1.13,0.37
			c0.35,0.1,0.65,0.19,0.9,0.27c0.51,0.15,0.81,0.23,0.81,0.23s-0.28,0.14-0.81,0.29c-0.53,0.16-1.29,0.3-2.23,0.36
			c-0.93,0.05-2.03,0-3.2-0.25c-0.59-0.12-1.19-0.3-1.79-0.54c-0.6-0.24-1.21-0.57-1.8-1l-0.48-0.41c-0.17-0.15-0.22-0.23-0.33-0.35
			l-0.21-0.24l-0.15-0.2c-0.1-0.13-0.2-0.27-0.28-0.4c-0.35-0.53-0.63-1.06-0.88-1.56c-0.49-1-0.87-1.88-1.27-2.6
			c-0.38-0.73-0.79-1.3-1.12-1.69c-0.16-0.2-0.32-0.36-0.42-0.46C310.03,380.62,309.98,380.56,309.98,380.56z"/>
		<path class="st0" d="M306.94,383.82c0,0,0.24-0.03,0.66-0.07c0.2-0.04,0.47,0.04,0.8,0.12c0.35,0.06,0.62,0.27,0.99,0.47
			c0.29,0.24,0.66,0.5,0.92,0.84c0.3,0.32,0.57,0.67,0.82,1.05c0.5,0.74,0.97,1.52,1.44,2.23c0.25,0.34,0.49,0.69,0.76,0.98
			c0.25,0.32,0.54,0.56,0.82,0.82c0.32,0.18,0.59,0.46,0.91,0.6c0.33,0.13,0.61,0.35,0.93,0.43c0.31,0.09,0.6,0.21,0.86,0.3
			c0.27,0.05,0.51,0.12,0.71,0.17c0.4,0.1,0.64,0.18,0.64,0.18s-0.22,0.08-0.64,0.18c-0.21,0.05-0.46,0.12-0.76,0.17
			c-0.3,0.02-0.64,0.03-1.02,0.03c-0.39,0.03-0.79-0.1-1.22-0.19c-0.44-0.09-0.87-0.32-1.32-0.54c-0.39-0.29-0.86-0.55-1.2-0.94
			c-0.39-0.35-0.67-0.77-0.98-1.17c-0.26-0.42-0.53-0.84-0.73-1.25c-0.23-0.42-0.4-0.82-0.59-1.21c-0.2-0.36-0.35-0.75-0.53-1.06
			c-0.17-0.34-0.36-0.59-0.53-0.87c-0.1-0.11-0.2-0.21-0.29-0.32c-0.09-0.12-0.18-0.22-0.28-0.28c-0.2-0.13-0.35-0.33-0.56-0.39
			C307.16,383.94,306.94,383.82,306.94,383.82z"/>
	</g>
	<g>
		<path class="st0" d="M296.23,380.47c-0.87,3.71-7.8,1.42-4.59-2.93c1.24-1.68,2.38-2.13,2.45-4.53c0.05-1.99-0.95-3.85-2.47-5.15
			c-6.19-5.29-18.15-2.2-24.51,0.51c-5.36,2.29-10.38,4.98-16.18,5.01c-4.93,0.03-10.38-1.33-14.08-4.6
			c1.54,3.68,0.66,4.94,6.82,8.55c3.34,1.96,9.61,2.06,13.18,1.29c6.78-1.46,11.31-5,18.07-6.52c3.79-0.86,13.34-3.36,13.34,3.05
			c0,3.16-0.69,5.24,2.08,7.51c2.87,2.37,4.74,0.89,5.84-1.75"/>
		<path class="st0" d="M286.28,372.8c0,0-0.17-0.05-0.5-0.14c-0.33-0.07-0.83-0.18-1.47-0.24c-0.64-0.05-1.42-0.12-2.31-0.08
			c-0.89,0.03-1.9,0.07-2.99,0.23c-1.09,0.16-2.28,0.35-3.53,0.75c-0.63,0.19-1.26,0.44-1.95,0.81c-0.28,0.16-0.57,0.32-0.85,0.48
			c-0.29,0.18-0.6,0.38-0.89,0.58c-1.15,0.8-2.26,1.64-3.38,2.45c-1.11,0.84-2.2,1.58-3.39,2.15c-1.1,0.49-2.42,0.89-3.71,1.13
			c-1.3,0.24-2.62,0.39-3.9,0.45c-1.29,0.04-2.54,0.01-3.72-0.07c-1.18-0.09-2.3-0.25-3.33-0.43c-2.05-0.39-3.73-0.94-4.87-1.43
			c-0.57-0.25-1.02-0.46-1.31-0.62c-0.3-0.16-0.46-0.24-0.46-0.24s0.13,0.13,0.36,0.37c0.24,0.24,0.61,0.59,1.12,0.97
			c1.02,0.78,2.62,1.76,4.73,2.5c1.05,0.38,2.21,0.71,3.47,0.95c1.26,0.25,2.6,0.41,4.01,0.45c1.4,0.04,2.87-0.01,4.35-0.25
			c0.74-0.11,1.49-0.27,2.23-0.49c0.75-0.22,1.46-0.45,2.23-0.84c1.39-0.69,2.66-1.62,3.78-2.5c1.11-0.91,2.15-1.83,3.16-2.64
			c0.25-0.2,0.49-0.39,0.73-0.59c0.27-0.2,0.53-0.39,0.79-0.58c0.42-0.29,0.94-0.57,1.48-0.79c1.06-0.46,2.14-0.84,3.16-1.12
			c1.01-0.28,1.95-0.53,2.8-0.7c0.85-0.17,1.59-0.3,2.21-0.38c0.62-0.07,1.1-0.11,1.44-0.12C286.1,372.8,286.28,372.8,286.28,372.8z
			"/>
		<path class="st0" d="M286.48,374.12c0,0-0.14-0.02-0.41-0.05c-0.27-0.02-0.66-0.09-1.18-0.07c-0.52-0.01-1.15,0.01-1.87,0.1
			c-0.71,0.1-1.53,0.24-2.39,0.52c-1.73,0.5-3.64,1.48-5.45,2.82c-0.91,0.67-1.78,1.43-2.61,2.24c-0.41,0.39-0.86,0.86-1.19,1.22
			l-0.3,0.3l-0.25,0.21c-0.17,0.14-0.37,0.31-0.57,0.45c-1.62,1.18-3.65,1.96-5.6,2.48c-1.96,0.53-3.87,0.78-5.52,0.87
			c-1.66,0.08-3.05-0.01-4.03-0.16c-0.49-0.08-0.88-0.15-1.14-0.21c-0.27-0.06-0.41-0.09-0.41-0.09s0.12,0.08,0.35,0.24
			c0.23,0.15,0.57,0.37,1.04,0.58c0.93,0.45,2.34,0.95,4.11,1.2c0.88,0.13,1.85,0.22,2.88,0.2c1.03-0.01,2.12-0.07,3.23-0.27
			c2.22-0.38,4.6-1.13,6.7-2.63c0.27-0.19,0.51-0.39,0.77-0.61l0.39-0.36l0.3-0.31c0.38-0.42,0.76-0.83,1.14-1.25
			c0.75-0.78,1.48-1.55,2.25-2.22c0.76-0.67,1.51-1.31,2.28-1.85c0.77-0.52,1.51-1.02,2.23-1.39c0.72-0.39,1.42-0.7,2.04-0.96
			c0.64-0.23,1.2-0.45,1.67-0.58c0.47-0.15,0.87-0.24,1.13-0.31C286.34,374.16,286.48,374.12,286.48,374.12z"/>
		<path class="st0" d="M287.21,377.07c0,0-0.12-0.01-0.33-0.04c-0.22-0.01-0.53-0.08-0.95-0.06c-0.84,0-2.07,0.15-3.42,0.77
			c-1.37,0.58-2.76,1.62-4.05,2.8c-1.3,1.18-2.53,2.47-3.82,3.58c-0.64,0.56-1.31,1.05-1.99,1.5c-0.68,0.44-1.39,0.79-2.09,1.11
			c-0.72,0.28-1.43,0.54-2.14,0.7c-0.71,0.18-1.4,0.31-2.05,0.39c-0.65,0.1-1.26,0.13-1.81,0.19c-0.55,0.01-1.03,0.07-1.43,0.07
			c-0.8,0.01-1.27,0.05-1.27,0.05s0.42,0.2,1.19,0.49c0.38,0.14,0.86,0.28,1.42,0.43c0.56,0.12,1.2,0.29,1.91,0.34
			c0.71,0.09,1.5,0.13,2.34,0.08c0.84-0.03,1.73-0.2,2.64-0.45c0.89-0.27,1.81-0.63,2.66-1.12c0.86-0.48,1.66-1.07,2.4-1.7
			c1.47-1.27,2.67-2.7,3.77-3.96c1.09-1.26,2.11-2.36,3.12-3.15c0.5-0.4,1-0.71,1.46-0.98c0.47-0.24,0.89-0.46,1.25-0.6
			c0.36-0.16,0.67-0.25,0.88-0.32C287.1,377.11,287.21,377.07,287.21,377.07z"/>
		<path class="st0" d="M286.11,380.4c0,0-0.08,0.01-0.22,0.03c-0.15,0.03-0.36,0.04-0.63,0.14c-0.55,0.16-1.3,0.54-2.04,1.19
			c-0.74,0.64-1.43,1.54-2.05,2.46c-0.31,0.46-0.61,0.92-0.91,1.34l-0.23,0.31l-0.11,0.16l-0.01,0.01l0,0
			c-0.05,0.07,0.07-0.09,0.05-0.07l-0.02,0.02l-0.04,0.04l-0.07,0.08c-0.09,0.09-0.21,0.26-0.27,0.29
			c-0.07,0.05-0.13,0.11-0.19,0.17c-0.35,0.27-0.75,0.57-1.2,0.82c-0.44,0.26-0.9,0.49-1.37,0.71c-0.93,0.43-1.85,0.8-2.66,1.1
			c-0.41,0.15-0.79,0.29-1.12,0.41c-0.34,0.12-0.64,0.22-0.89,0.3c-0.51,0.17-0.8,0.27-0.8,0.27s0.29,0.13,0.82,0.26
			c0.53,0.14,1.3,0.25,2.24,0.28c0.94,0.01,2.03-0.08,3.19-0.37c0.58-0.14,1.17-0.34,1.77-0.61c0.6-0.27,1.19-0.61,1.76-1.07
			l0.47-0.43c0.16-0.16,0.21-0.24,0.32-0.36l0.2-0.25l0.14-0.2c0.09-0.14,0.18-0.27,0.26-0.41c0.33-0.55,0.59-1.09,0.82-1.59
			c0.46-1.02,0.8-1.92,1.17-2.65c0.35-0.74,0.74-1.33,1.05-1.73c0.15-0.2,0.3-0.37,0.4-0.48
			C286.06,380.46,286.11,380.4,286.11,380.4z"/>
		<path class="st0" d="M289.27,383.55c0,0-0.24-0.02-0.66-0.04c-0.2-0.03-0.47,0.06-0.79,0.15c-0.35,0.08-0.61,0.3-0.97,0.5
			c-0.28,0.25-0.64,0.53-0.89,0.87c-0.29,0.34-0.54,0.69-0.78,1.08c-0.47,0.76-0.91,1.55-1.36,2.29c-0.24,0.35-0.46,0.71-0.72,1.01
			c-0.24,0.33-0.52,0.58-0.78,0.86c-0.31,0.19-0.57,0.48-0.89,0.63c-0.32,0.14-0.6,0.38-0.91,0.46c-0.31,0.11-0.59,0.23-0.85,0.34
			c-0.27,0.06-0.5,0.14-0.7,0.19c-0.4,0.12-0.63,0.2-0.63,0.2s0.23,0.07,0.64,0.16c0.21,0.04,0.47,0.1,0.76,0.14
			c0.3,0.01,0.64,0.01,1.02-0.01c0.38,0.02,0.78-0.13,1.22-0.23c0.44-0.1,0.85-0.35,1.29-0.59c0.38-0.3,0.84-0.58,1.16-0.98
			c0.38-0.37,0.65-0.79,0.94-1.21c0.24-0.43,0.5-0.86,0.69-1.28c0.21-0.43,0.37-0.84,0.54-1.23c0.18-0.37,0.32-0.76,0.49-1.08
			c0.15-0.35,0.34-0.6,0.49-0.89c0.1-0.11,0.2-0.22,0.28-0.34c0.08-0.13,0.17-0.22,0.27-0.29c0.19-0.14,0.34-0.35,0.55-0.41
			C289.06,383.67,289.27,383.55,289.27,383.55z"/>
	</g>
</g>
</svg>
