<?xml version="1.0" encoding="utf-8"?>
<!-- Generator: Adobe Illustrator 24.0.0, SVG Export Plug-In . SVG Version: 6.00 Build 0)  -->
<svg version="1.1" id="Слой_1" xmlns="http://www.w3.org/2000/svg" xmlns:xlink="http://www.w3.org/1999/xlink" x="0px" y="0px"
	 viewBox="0 0 595.28 841.89" style="enable-background:new 0 0 595.28 841.89;" xml:space="preserve">
<style type="text/css">
	.st0{fill:none;stroke:#E50068;stroke-width:3;stroke-miterlimit:10;}
	.st1{fill:none;stroke:#E50068;stroke-width:2.0107;stroke-miterlimit:10;}
</style>
<g>
	<path class="st0" d="M321.82,441.55c-12.75,9.97-20.44,20.01-24.07,25.47c-3.63-5.45-11.31-15.5-24.07-25.47
		c-19.53-15.26-28.63-28.42-28.63-41.37c0-19.72,12.71-26.7,23.6-26.7c10.15,0,19.73,5.55,25.64,14.85l0.07,0.1l0.1,0.1
		c0.74,0.96,1.89,1.55,3.17,1.61l0.12,0l0.12,0c1.27-0.06,2.46-0.67,3.18-1.63l0.06-0.08l0.1-0.09c5.91-9.29,15.5-14.85,25.65-14.85
		c10.88,0,23.6,6.98,23.6,26.7C350.46,413.13,341.36,426.27,321.82,441.55z"/>
	<g>
		<path class="st1" d="M283.1,411.21L283.1,411.21c0,6.72,4.63,12.54,11.07,14.16c0,1.01,0,7.71,0,9.04c-1.3,0-6.29,0-6.29,0
			c-0.46,0-0.84,0.38-0.84,0.84v5.48c0,0.46,0.38,0.84,0.84,0.84c0,0,4.98,0,6.29,0c0,1.33,0,6.78,0,6.78
			c0,0.46,0.38,0.84,0.84,0.84h5.48c0.46,0,0.84-0.37,0.84-0.84c0,0,0-5.46,0-6.78c1.3,0,6.29,0,6.29,0c0.46,0,0.84-0.37,0.84-0.84
			v-5.48c0-0.46-0.37-0.84-0.84-0.84c0,0-4.99,0-6.29,0c0-1.33,0-8.03,0-9.04c6.45-1.63,11.07-7.45,11.07-14.17
			c0-8.08-6.57-14.65-14.65-14.65C289.67,396.55,283.1,403.13,283.1,411.21z M288.89,411.21c0-4.89,3.98-8.87,8.87-8.87
			c4.89,0,8.87,3.98,8.87,8.87c0,4.89-3.98,8.87-8.87,8.87C292.87,420.08,288.89,416.1,288.89,411.21z"/>
	</g>
</g>
</svg>
