<?xml version="1.0" encoding="utf-8"?>
<!-- Generator: Adobe Illustrator 24.0.0, SVG Export Plug-In . SVG Version: 6.00 Build 0)  -->
<svg version="1.1" id="Слой_1" xmlns="http://www.w3.org/2000/svg" xmlns:xlink="http://www.w3.org/1999/xlink" x="0px" y="0px"
	 viewBox="0 0 595.28 841.89" style="enable-background:new 0 0 595.28 841.89;" xml:space="preserve">
<style type="text/css">
	.st0{fill:none;}
	.st1{fill:#E50068;}
</style>
<g>
	<path class="st0" d="M320.34,435.82c0.16,0.29,0.31,0.58,0.47,0.88c0.61,1.15,1.23,2.34,2.1,3.33c1.04,1.19,2.28,2.23,3.48,3.23
		c0.36,0.3,0.71,0.6,1.07,0.9c0.22,0.19,0.56,0.27,0.87,0.27c0.13,0,0.26-0.01,0.38-0.04c0.73-0.17,1.45-0.37,2.11-0.56l1.4-0.39
		l-0.56-0.46c-0.51-0.42-1.04-0.83-1.57-1.25c-1.17-0.92-2.38-1.87-3.46-2.92c-2.13-2.07-4.14-4.7-2.95-8.52
		c0.16-0.53-0.03-1.1-0.21-1.65c-0.07-0.22-0.15-0.44-0.19-0.65l-0.12-0.55l-0.84,0.58l-0.63,1.66c-0.55,1.44-1.11,2.93-1.61,4.41
		C319.9,434.62,320.09,435.34,320.34,435.82z M320.44,434.19c0.67-2,1.45-3.97,2.19-5.95c0.09-0.06,0.19-0.13,0.28-0.19
		c0.15,0.71,0.6,1.51,0.41,2.11c-1.17,3.75,0.57,6.49,3.05,8.9c1.58,1.54,3.39,2.84,5.05,4.19c-0.84,0.23-1.81,0.53-2.8,0.75
		c-0.29,0.07-0.72,0.03-0.92-0.14c-1.54-1.32-3.18-2.58-4.51-4.09c-1.05-1.2-1.74-2.72-2.52-4.14
		C320.45,435.23,320.3,434.61,320.44,434.19z"/>
	<path class="st0" d="M323.78,443.19l-0.69,5.71l3.2-2.92L323.78,443.19z M324.05,444.06c0.71,0.79,1.16,1.29,1.7,1.9
		c-0.57,0.52-1.2,1.1-2.17,1.99C323.75,446.5,323.88,445.45,324.05,444.06z"/>
	<path class="st0" d="M312.25,413.44l-1.42-0.22c-9.18-1.44-20.04-0.56-27.66,2.23l-1.23,0.45l1.28,0.27
		c2.82,0.59,5.97,0.87,9.22,0.87c6.31,0,13.01-1.08,18.46-3.1L312.25,413.44z M283.3,415.8c8.03-2.94,19.07-3.53,27.47-2.21
		C302.73,416.57,291.74,417.56,283.3,415.8z"/>
	<path class="st0" d="M331.63,440.17c1,0.52,2.06,0.77,3.1,0.77c2.39,0,4.68-1.32,5.89-3.64c0.36-0.68,0.54-1.52,0.48-2.25
		c-0.29-4-4.8-7.92-9.1-7.92c0,0,0,0,0,0l-0.06,0.01c-0.12,0.02-0.26,0.04-0.43,0.06c-0.47,0.06-1.12,0.14-1.75,0.33
		c-1.48,0.43-2.85,1.6-3.51,2.97c-0.56,1.17-0.58,2.44-0.06,3.66C327.36,436.87,329.18,438.9,331.63,440.17z M329.88,427.88
		c0.82-0.24,1.68-0.3,2.13-0.38c4.21,0,8.45,3.82,8.72,7.58c0.05,0.67-0.13,1.45-0.44,2.05c-1.65,3.16-5.35,4.35-8.49,2.71
		c-2.46-1.28-4.17-3.28-5.25-5.83C325.29,431.02,327.78,428.5,329.88,427.88z"/>
	<path class="st0" d="M315.24,418.8c-0.41-0.27-0.96-0.26-1.54,0.03c-0.53,0.27-1.01,0.62-1.47,0.97l-0.13,0.09
		c-5.51,4.07-10.32,8.75-14.29,13.91c-0.08,0.1-0.16,0.21-0.25,0.31c-0.58,0.7-1.45,1.76-0.4,2.79c0.34,0.33,0.68,0.45,1.01,0.45
		c0.67,0,1.3-0.51,1.77-0.9c0.11-0.09,0.22-0.18,0.33-0.26c5.19-3.93,9.98-8.49,14.67-13.92c0.33-0.39,0.57-0.85,0.74-1.19
		c0.06-0.12,0.11-0.23,0.16-0.31l0.05-0.16C315.94,419.76,315.71,419.12,315.24,418.8z M314.65,422.04
		c-4.4,5.11-9.23,9.79-14.61,13.87c-0.75,0.57-1.7,1.62-2.62,0.73c-0.93-0.9,0.11-1.84,0.69-2.6c4.07-5.3,8.84-9.88,14.21-13.84
		c0.5-0.37,1-0.75,1.55-1.03c0.99-0.5,1.73,0.01,1.63,1.42C315.32,420.91,315.07,421.55,314.65,422.04z"/>
	<path class="st0" d="M328.95,446.93c-1.67,0.81-2.88,2.8-3.15,5.19c-0.4,3.49,0.95,6.39,4,8.62c1.1,0.81,2.32,1.21,3.54,1.21
		c0.91,0,1.83-0.23,2.7-0.69c2.14-1.12,3.22-3.02,3.22-5.63v-0.01c-0.12-3.28-1.84-6.1-4.85-7.96
		C331.87,446.09,330.04,446.4,328.95,446.93z M338.89,455.63c0,2.56-1.08,4.27-3.02,5.29c-1.98,1.04-4.11,0.77-5.85-0.5
		c-2.74-2-4.25-4.71-3.85-8.27c0.41-3.65,3.26-7.13,8.05-4.18C337.07,449.74,338.77,452.42,338.89,455.63z"/>
	<path class="st0" d="M325.2,414.17l-0.89,0.27l0.82,0.42c7.13,3.65,17.37,6.12,25.27,6.12c0.3,0,0.6,0,0.89-0.01l0.81-0.02
		l-0.54-0.61C348.06,416.43,329.17,412.97,325.2,414.17z"/>
	<path class="st0" d="M318.22,437.28c-0.64-0.48-1.65-0.41-2.54-0.35c-0.17,0.01-0.35,0.02-0.51,0.03
		c-0.38,0.02-0.71,0.19-1.02,0.37c-0.17,0.09-0.34,0.19-0.52,0.24c-4.12,1.34-5.73,6.45-5.27,9.47c0.33,2.15,1.56,3.97,3.29,4.86
		c0.7,0.36,1.43,0.54,2.16,0.54c0.7,0,1.39-0.17,2.05-0.5c3.38-1.72,5.38-4.65,5.78-8.48l0-0.03l0-0.03
		C321.53,440.96,320.37,438.9,318.22,437.28z M315.7,451.61c-2.94,1.5-6.38-0.84-6.96-4.62c-0.47-3.03,1.21-7.82,5.01-9.05
		c0.5-0.16,0.95-0.57,1.44-0.59c0.95-0.04,2.17-0.24,2.81,0.24c1.86,1.4,3.15,3.28,3.27,5.84
		C320.89,447.1,319.01,449.92,315.7,451.61z"/>
	<path class="st1" d="M357.76,420.93c-0.13-0.4-0.49-0.77-0.96-1c-1.06-0.52-2.11-1.06-3.16-1.61c-2.68-1.39-5.45-2.82-8.31-3.77
		c-7.23-2.4-14.44-3.22-21.44-2.46c-3.25,0.35-6.75,1.83-6.79,1.85l-0.19,0.08l-0.17-0.11c-0.06-0.04-5.92-3.91-12.25-3.8
		c-0.01,0-0.01,0-0.02,0c-2.57,0-4.75,0.31-6.34,0.54c-0.53,0.08-1,0.14-1.4,0.19c-5.63,0.62-11.05,1.94-16.13,3.92
		c-1.1,0.43-1.51,0.95-1.44,1.82c0.08,0.91,0.69,1.24,1.66,1.47c1.66,0.4,3.12,0.72,4.46,0.97c6.97,1.29,13.16,1.06,18.93-0.71
		c0.16-0.05,0.32-0.11,0.49-0.17c0.86-0.31,2.15-0.78,2.81,0.42c0.76,1.37-0.53,2.31-1.39,2.93l-0.2,0.15
		c-5.91,4.37-10.42,10.31-14.62,19.27c-0.49,1.04-0.42,1.78,0.22,2.32c0.85,0.72,1.75,0.39,2.36,0c1.04-0.68,2.09-1.34,3.15-2.01
		c2.73-1.73,5.56-3.51,8.11-5.54c4.32-3.44,8.12-6.64,10.89-10.92c0.45-0.69,1.06-1.08,1.72-1.05c0.69,0.01,1.35,0.44,1.8,1.19
		c0.36,0.59,0.78,1.46,0.7,2.23c-0.19,1.82-1.04,6.14-4.92,6.84c-2.51,0.45-4.43,1.82-6.55,3.72c-2.51,2.25-3.86,5.72-3.53,9.04
		c0.23,2.27,1.34,5.48,5.35,7.85c2.21,1.31,4.63,1.14,6.63-0.46l0.27-0.21c0.8-0.64,1.63-1.3,2.5-1.88
		c0.49-0.33,0.92-0.49,1.29-0.49c0.17,0,0.32,0.03,0.47,0.1c0.47,0.21,0.75,0.74,0.85,1.59c0.58,4.73,3.1,8.42,7.5,10.95
		c1.93,1.11,3.53,1.38,5.05,0.83c4.62-1.66,8.34-6.37,6.49-12.16c-0.68-2.14-1.89-3.93-3.6-5.32c-0.55-0.45-1.08-0.9-1.5-1.45
		c-0.65-0.85-0.62-1.45-0.47-1.81c0.14-0.34,0.51-0.78,1.5-0.93c1.93-0.3,3.47-1.39,4.87-3.43c1.09-1.6,2.21-3.24,1.74-5.25
		c-0.92-3.94-4.02-7.57-7.9-9.27c-3.17-1.38-6.41-1.28-9.13,0.27c-1.28,0.73-2.58,0.56-3.86-0.52c-1.62-1.36-2.6-2.97-2.9-4.78
		c-0.12-0.71-0.05-1.45,0.01-2.15c0.03-0.31,0.06-0.62,0.07-0.92l0.02-0.43l0.42,0.07c0.29,0.05,0.59,0.07,0.89,0.1
		c0.71,0.06,1.45,0.12,2.05,0.47c2.33,1.35,4.73,2.27,7.33,2.83c0.49,0.1,0.98,0.19,1.48,0.27c0.77,0.13,1.57,0.26,2.34,0.48
		c5.09,1.42,10.54,2.1,16.15,2.07h0c0.47,0,0.95,0.01,1.43,0.03c1.12,0.03,2.28,0.06,3.38-0.09c0.6-0.08,1.42-0.69,1.72-1.27
		C357.83,421.5,357.86,421.21,357.76,420.93z M292.44,417.04c-3.25,0-6.4-0.29-9.22-0.87l-1.28-0.27l1.23-0.45
		c7.62-2.79,18.47-3.67,27.66-2.23l1.42,0.22l-1.35,0.5C305.45,415.96,298.75,417.04,292.44,417.04z M315.83,420.78
		c-0.05,0.08-0.1,0.19-0.16,0.31c-0.17,0.34-0.4,0.81-0.74,1.19c-4.68,5.43-9.48,9.99-14.67,13.92c-0.1,0.08-0.21,0.17-0.33,0.26
		c-0.47,0.38-4.78,2.59-4.78,2.59s1.83-4.23,2.41-4.93c0.09-0.11,0.17-0.21,0.25-0.31c3.97-5.16,8.77-9.84,14.29-13.91l0.13-0.09
		c0.46-0.34,0.94-0.7,1.47-0.97c0.58-0.29,1.13-0.31,1.54-0.03c0.47,0.31,0.7,0.96,0.63,1.81L315.83,420.78z M321.64,443.46
		c-0.4,3.83-2.39,6.76-5.78,8.48c-0.66,0.33-1.35,0.5-2.05,0.5c-0.73,0-1.46-0.18-2.16-0.54c-1.73-0.89-2.96-2.7-3.29-4.86
		c-0.46-3.02,1.14-8.13,5.27-9.47c0.18-0.06,0.35-0.15,0.52-0.24c0.32-0.17,0.64-0.35,1.02-0.37c0.16-0.01,0.33-0.02,0.51-0.03
		c0.89-0.06,1.9-0.13,2.54,0.35c2.15,1.62,3.3,3.68,3.42,6.12l0,0.03L321.64,443.46z M339.26,455.62v0.01c0,2.61-1.08,4.5-3.22,5.63
		c-0.87,0.46-1.79,0.69-2.7,0.69c-1.22,0-2.44-0.41-3.54-1.21c-3.05-2.23-4.4-5.13-4-8.62c0.27-2.39,1.48-4.37,3.15-5.19
		c1.09-0.53,2.93-0.83,5.47,0.73C337.42,449.51,339.14,452.34,339.26,455.62z M323.08,448.9l0.69-5.71l2.5,2.79L323.08,448.9z
		 M326.27,430.5c0.65-1.37,2.03-2.54,3.51-2.97c0.63-0.18,1.27-0.27,1.75-0.33c0.17-0.02,0.31-0.04,0.43-0.06l0.06-0.01c0,0,0,0,0,0
		c4.3,0,8.8,3.92,9.1,7.92c0.05,0.73-0.13,1.57-0.48,2.25c-1.21,2.32-3.5,3.64-5.89,3.64c-1.04,0-2.1-0.25-3.1-0.77
		c-2.45-1.28-4.27-3.3-5.42-6.02C325.69,432.93,325.72,431.67,326.27,430.5z M321.69,429.66l0.63-1.66l0.84-0.58l0.12,0.55
		c0.05,0.21,0.12,0.43,0.19,0.65c0.19,0.55,0.38,1.12,0.21,1.65c-1.19,3.82,0.82,6.45,2.95,8.52c1.08,1.05,2.29,2,3.46,2.92
		c0.53,0.42,1.06,0.83,1.57,1.25l0.56,0.46l-1.4,0.39c-0.67,0.19-1.38,0.4-2.11,0.56c-0.12,0.03-0.24,0.04-0.38,0.04
		c-0.32,0-0.66-0.08-0.87-0.27c-0.35-0.3-0.71-0.6-1.07-0.9c-1.2-1-2.43-2.04-3.48-3.23c-0.86-0.98-1.49-2.18-2.1-3.33
		c-0.15-0.29-0.31-0.59-0.47-0.88c-0.26-0.48-0.44-1.2-0.26-1.74C320.58,432.59,321.15,431.1,321.69,429.66z M351.3,420.97
		c-0.29,0.01-0.59,0.01-0.89,0.01c-7.9,0-18.14-2.46-25.27-6.12l-0.82-0.42l0.89-0.27c3.97-1.2,22.86,2.26,26.37,6.17l0.54,0.61
		L351.3,420.97z"/>
	<g>
		<path class="st1" d="M290.63,365.01c-0.97,3.72-3.62,13.63-5.06,16.99c-2.75,6.42-6.44,12.44-10.01,18.26l-1.33,2.17
			c-4.33,7.09-8.41,14.34-12.14,21.54c-3.44,6.65-4.94,12.73-4.58,18.6l0,0.02c0.07,3.46,0.22,6.85,1.23,10.24
			c2,6.74,6,12.25,12.22,16.87c3.05,2.26,6.39,3.69,9.54,4.9c3.79,1.46,7.46,2.09,10.89,1.88c5.83-0.35,11.33-2.05,16.36-5.04
			c4.79-2.85,8.76-6.75,11.8-11.6c0.66-1.06,0.67-2.16,0.01-2.61c-0.31-0.22-0.64-0.29-0.97-0.23c-0.5,0.1-1.01,0.53-1.44,1.22
			c-0.1,0.16-0.19,0.31-0.28,0.48c-2.84,5.03-6.85,8.78-11.92,11.14c-9.86,4.58-19.73,4.43-29.34-0.47
			c-9.11-4.64-14.29-12.84-15.39-24.36c-0.61-6.35,1.38-12.38,3.19-16.92c2.98-7.51,7.25-14.46,11.38-21.18
			c0.96-1.56,1.91-3.12,2.86-4.68c0.58-0.96,1.17-1.93,1.75-2.89c3.59-5.88,7.3-11.97,9.47-18.71c0.16-0.48,1.34-4.27,1.34-4.27
			l0.35-1.12l0.36,1.12c0.73,2.25,2.2,6.69,2.56,7.4c0.76,1.49,1.48,2.95,2.19,4.4c1.47,2.99,2.87,5.81,4.5,8.77
			c1.43,2.59,3.09,5.12,4.69,7.56l0.84,1.28c0.39,0.6,0.87,0.96,1.39,1.05c0.48,0.08,1-0.08,1.5-0.47c0.69-0.53,0.52-0.89-0.11-1.7
			c-0.09-0.12-0.18-0.23-0.26-0.35c-4.55-6.57-8.54-13.64-12.2-21.6C294.29,378.91,291.6,368.78,290.63,365.01z"/>
	</g>
	<g>
		<path class="st1" d="M264.96,443.27c0.31-3.37,1.1-6.98,2.85-10.34c0.59-1.14,1.85-1.6,2.91-1.11c1.25,0.57,1.12,1.63,0.85,2.7
			c-0.09,0.36-0.26,0.72-0.44,1.05c-3.66,6.65-2.36,14.79,3.2,19.98c0.17,0.16,0.36,0.32,0.5,0.51c0.59,0.87,1.11,1.87,0.23,2.72
			c-0.9,0.87-2.06,0.52-2.85-0.24c-4.14-4-6.96-8.68-7.24-14.61C264.96,443.83,264.96,443.74,264.96,443.27z"/>
	</g>
</g>
</svg>
