<?xml version="1.0" encoding="utf-8"?>
<svg version="1.1" id="Слой_1" xmlns="http://www.w3.org/2000/svg" xmlns:xlink="http://www.w3.org/1999/xlink" x="0px" y="0px"
	 viewBox="0 0 595.28 841.89" style="enable-background:new 0 0 595.28 841.89;" xml:space="preserve">
<style type="text/css">
	.st0{fill:#E50068;}
	.st1{fill:none;}


</style>
<g>
	<g>
		<g>
			<path class="st0" d="M307.15,451.87c-1.99,0-4-0.46-5.98-0.92c-1.78-0.41-3.47-0.8-5.11-0.86c-1.56-0.06-3.2,0.19-4.95,0.45
				c-2.99,0.45-6.08,0.92-9-0.16c-2.92-1.08-4.96-3.45-6.94-5.74c-1.16-1.34-2.25-2.6-3.46-3.56c-1.29-1.02-2.89-1.86-4.44-2.67
				c-2.64-1.38-5.37-2.81-7.02-5.29c-1.67-2.5-1.93-5.58-2.19-8.56c-0.16-1.81-0.3-3.52-0.74-5.08c-0.43-1.53-1.19-3.05-2-4.65
				c-1.35-2.69-2.74-5.47-2.62-8.52c0.12-2.91,1.69-5.54,3.21-8.07c0.91-1.52,1.86-3.1,2.45-4.69c0.59-1.58,0.89-3.4,1.19-5.15
				c0.5-2.92,1.01-5.93,2.82-8.22c1.89-2.39,4.76-3.6,7.53-4.77c1.66-0.7,3.22-1.35,4.54-2.23c1.35-0.9,2.57-2.1,3.87-3.37
				c2.14-2.1,4.34-4.26,7.24-5.08c2.86-0.81,5.87-0.12,8.78,0.55c1.78,0.41,3.46,0.8,5.1,0.86c1.55,0.06,3.2-0.19,4.95-0.45
				c2.99-0.45,6.08-0.92,9,0.16c2.92,1.08,4.96,3.45,6.93,5.74c1.16,1.34,2.25,2.6,3.46,3.57c1.29,1.02,2.82,1.82,4.44,2.67
				c2.64,1.38,5.38,2.81,7.02,5.29c1.67,2.5,1.93,5.59,2.19,8.57c0.16,1.81,0.3,3.52,0.74,5.07c0.43,1.53,1.19,3.04,1.99,4.65
				c1.35,2.69,2.74,5.47,2.62,8.52c-0.12,2.91-1.69,5.54-3.21,8.07c-0.91,1.52-1.86,3.1-2.44,4.69c-0.59,1.59-0.89,3.4-1.19,5.15
				c-0.5,2.92-1.01,5.93-2.81,8.22c-1.89,2.39-4.76,3.6-7.53,4.77c-1.66,0.7-3.22,1.35-4.54,2.23c-1.35,0.9-2.57,2.1-3.87,3.37
				c-2.14,2.1-4.34,4.26-7.24,5.08C309.03,451.77,308.1,451.87,307.15,451.87z M295.6,448.04c0.19,0,0.37,0,0.56,0.01
				c1.83,0.07,3.69,0.5,5.48,0.91c2.78,0.64,5.4,1.24,7.76,0.58c2.39-0.67,4.32-2.57,6.36-4.57c1.31-1.28,2.66-2.61,4.17-3.61
				c1.48-0.99,3.21-1.71,4.88-2.42c2.65-1.11,5.16-2.17,6.72-4.15c1.48-1.88,1.93-4.51,2.4-7.3c0.31-1.84,0.64-3.75,1.29-5.52
				c0.65-1.76,1.65-3.42,2.61-5.03c1.45-2.42,2.82-4.71,2.92-7.1c0.1-2.52-1.11-4.95-2.4-7.52c-0.81-1.62-1.65-3.3-2.13-5.01
				c-0.49-1.74-0.65-3.63-0.81-5.45c-0.25-2.85-0.48-5.54-1.86-7.61c-1.36-2.04-3.74-3.29-6.27-4.61c-1.63-0.85-3.32-1.74-4.76-2.87
				c-1.37-1.08-2.58-2.48-3.75-3.83c-1.81-2.09-3.67-4.26-6.1-5.15c-2.42-0.9-5.25-0.47-7.98-0.05c-1.77,0.27-3.59,0.55-5.34,0.47
				c-1.83-0.07-3.69-0.5-5.48-0.91c-2.78-0.64-5.4-1.24-7.76-0.58c-2.39,0.67-4.32,2.57-6.36,4.57c-1.31,1.28-2.66,2.61-4.16,3.61
				c-1.48,0.99-3.21,1.71-4.88,2.42c-2.65,1.11-5.15,2.17-6.72,4.15c-1.49,1.88-1.93,4.51-2.41,7.3c-0.31,1.84-0.64,3.75-1.29,5.51
				c-0.65,1.76-1.65,3.42-2.61,5.03c-1.45,2.42-2.82,4.71-2.92,7.1c-0.1,2.52,1.12,4.95,2.4,7.52c0.81,1.62,1.65,3.3,2.13,5.01
				c0.49,1.74,0.65,3.63,0.81,5.45c0.25,2.85,0.48,5.54,1.86,7.61c1.36,2.04,3.74,3.29,6.27,4.61c1.63,0.85,3.32,1.74,4.76,2.87
				c1.37,1.08,2.58,2.48,3.74,3.83c1.81,2.09,3.67,4.26,6.1,5.15c2.43,0.9,5.25,0.47,7.99,0.05
				C292.4,448.28,294.03,448.04,295.6,448.04z"/>
		</g>
	</g>
	<path class="st1" d="M328.31,408.13c0-17.01-13.71-30.85-30.55-30.85c-16.85,0-30.55,13.84-30.55,30.85
		c0,17.01,13.71,30.85,30.55,30.85C314.6,438.98,328.31,425.14,328.31,408.13z"/>
	<path class="st1" d="M297.55,443.65c0.4,0.22,0.8,0.44,1.19,0.66c0.45-0.25,0.89-0.5,1.34-0.74c-0.77,0.05-1.54,0.09-2.33,0.09
		C297.68,443.66,297.61,443.65,297.55,443.65z"/>
	<path class="st1" d="M261.31,455.42c4.91,0.38,9.96,0.13,15.03-0.74l1.41-0.24l-0.23,1.41c-0.9,5.53-2.5,11.01-4.77,16.32
		c9.92-6.9,18.25-15.98,24.26-26.47c-1.46-0.8-2.91-1.61-4.36-2.41c-5.29-0.78-10.21-2.75-14.47-5.64
		C273.81,444.61,268.06,450.69,261.31,455.42z"/>
	<path class="st1" d="M279.25,435.88c-0.03,0.05-0.07,0.11-0.1,0.16c2.13,1.45,4.44,2.66,6.88,3.59
		C283.77,438.38,281.51,437.13,279.25,435.88z"/>
	<path class="st1" d="M265.32,408.13c0-18.05,14.55-32.73,32.43-32.73c17.88,0,32.43,14.68,32.43,32.73
		c0,10.33-4.77,19.54-12.19,25.55c0.04-0.02,0.08-0.05,0.13-0.07l0.89-0.5l0.34,0.62c7.17-6.18,11.73-15.36,11.73-25.6
		c0-18.56-14.95-33.65-33.33-33.65s-33.33,15.1-33.33,33.65c0,10.86,5.13,20.53,13.06,26.69c0.15-0.27,0.32-0.52,0.47-0.79
		C270.28,428.03,265.32,418.65,265.32,408.13z"/>
	<path class="st1" d="M297.75,440.85c-2.21,0-4.37-0.23-6.45-0.65c0.8,0.44,1.59,0.88,2.39,1.32c1.33,0.16,2.69,0.26,4.06,0.26
		c2.36,0,4.66-0.25,6.88-0.72c1.16-0.64,2.32-1.28,3.48-1.92C304.86,440.24,301.38,440.85,297.75,440.85z"/>
	<path class="st0" d="M308.11,439.13c3.29-1.82,6.59-3.63,9.88-5.46c7.42-6,12.19-15.22,12.19-25.55
		c0-18.05-14.55-32.73-32.43-32.73c-17.88,0-32.43,14.68-32.43,32.73c0,10.53,4.96,19.91,12.63,25.9c0-0.01,0.01-0.02,0.01-0.02
		l0.5-0.89l0.89,0.5c3.98,2.21,7.96,4.4,11.94,6.6c2.09,0.43,4.24,0.65,6.45,0.65C301.38,440.85,304.86,440.24,308.11,439.13z
		 M267.2,408.13c0-17.01,13.71-30.85,30.55-30.85c16.85,0,30.55,13.84,30.55,30.85c0,17.01-13.71,30.85-30.55,30.85
		C280.91,438.98,267.2,425.14,267.2,408.13z"/>
	<path class="st0" d="M278.47,433.11l-0.5,0.89c0,0.01-0.01,0.02-0.01,0.02c3.86,3.01,8.39,5.17,13.34,6.18
		c-3.98-2.2-7.96-4.39-11.94-6.6L278.47,433.11z"/>
	<path class="st0" d="M317.99,433.67c-3.29,1.83-6.58,3.64-9.88,5.46C311.73,437.89,315.07,436.03,317.99,433.67z"/>
	<path class="st0" d="M297.75,441.78c-1.38,0-2.73-0.09-4.06-0.26c1.29,0.71,2.57,1.42,3.86,2.13c0.07,0,0.14,0.01,0.21,0.01
		c0.78,0,1.56-0.04,2.33-0.09c1.52-0.84,3.03-1.68,4.55-2.52C302.41,441.53,300.11,441.78,297.75,441.78z"/>
	<path class="st0" d="M279.16,436.04c-0.32,0.54-0.65,1.07-0.98,1.6c4.26,2.89,9.18,4.86,14.47,5.64c-2.2-1.22-4.41-2.43-6.61-3.65
		C283.59,438.7,281.29,437.49,279.16,436.04z"/>
	<path class="st0" d="M305.92,442.68c4.7-1.13,9.03-3.2,12.79-6.02c-0.16-0.26-0.33-0.52-0.48-0.78
		C314.13,438.15,310.02,440.42,305.92,442.68z"/>
	<path class="st0" d="M264.42,408.13c0-18.56,14.95-33.65,33.33-33.65s33.33,15.1,33.33,33.65c0,10.24-4.56,19.42-11.73,25.6
		l0.15,0.27c0.26,0.47,0.55,0.91,0.82,1.37c7.72-6.52,12.64-16.31,12.64-27.24c0-19.59-15.79-35.53-35.21-35.53
		c-19.41,0-35.21,15.94-35.21,35.53c0,11.55,5.49,21.82,13.97,28.31c0.33-0.54,0.66-1.08,0.97-1.62
		C269.55,428.66,264.42,418.99,264.42,408.13z"/>
	<path class="st0" d="M279.16,436.04c-0.57-0.39-1.13-0.8-1.67-1.23c-0.32,0.55-0.64,1.09-0.97,1.62c0.54,0.41,1.09,0.82,1.66,1.2
		C278.5,437.11,278.84,436.58,279.16,436.04z"/>
	<path class="st0" d="M286.03,439.63c2.2,1.22,4.4,2.44,6.61,3.65c1.6,0.24,3.24,0.36,4.9,0.37c-1.29-0.71-2.57-1.42-3.86-2.13
		C291.03,441.19,288.46,440.55,286.03,439.63z"/>
	<path class="st0" d="M319.36,433.72c-4.16,3.58-9.19,6.15-14.72,7.33c-1.52,0.84-3.03,1.68-4.55,2.52
		c1.99-0.13,3.94-0.43,5.83-0.89c4.11-2.26,8.21-4.53,12.31-6.8c0.15,0.27,0.32,0.52,0.48,0.78c0.55-0.41,1.09-0.85,1.62-1.29
		c-0.27-0.46-0.56-0.9-0.82-1.37L319.36,433.72z"/>
	<path class="st1" d="M316.1,446.75l-6.94,3.87l-5.75-0.23c5.68,8.51,12.92,15.93,21.33,21.77c-2.28-5.32-3.88-10.8-4.77-16.32
		l-0.23-1.41l1.41,0.24c5.07,0.88,10.11,1.13,15.03,0.74c-5.42-3.79-10.19-8.47-14.12-13.77l-1.72,1.04L316.1,446.75z"/>
	<path class="st0" d="M339.65,455.28c-6.15-3.88-11.51-8.9-15.83-14.7l-1.77,1.07c3.93,5.31,8.7,9.98,14.12,13.77
		c-4.92,0.38-9.96,0.13-15.03-0.74l-1.41-0.24l0.23,1.41c0.9,5.52,2.5,11,4.77,16.32c-8.41-5.84-15.65-13.26-21.33-21.77l-0.03,0
		l-2.81-0.61c6.62,10.48,15.53,19.44,26.03,26.07l3.03,1.91l-1.57-3.22c-2.78-5.71-4.74-11.64-5.85-17.62
		c5.76,0.87,11.48,0.95,17.02,0.24l2.82-0.36L339.65,455.28z"/>
	<path class="st1" d="M261.31,455.42c4.91,0.38,9.96,0.13,15.03-0.74l1.41-0.24l-0.23,1.41c-0.9,5.53-2.5,11.01-4.77,16.32
		c8.7-6.04,16.17-13.77,21.93-22.65l-2.88,0.32h-7.16l-4.52-1.45l-5.69-5.38l0-0.01C270.68,447.74,266.27,451.95,261.31,455.42z"/>
	<path class="st0" d="M272.75,472.16c2.27-5.31,3.87-10.79,4.77-16.32l0.23-1.41l-1.41,0.24c-5.07,0.88-10.11,1.12-15.03,0.74
		c4.96-3.47,9.38-7.68,13.1-12.43l-1.33-1.62c-4.22,5.47-9.38,10.21-15.25,13.92l-2.4,1.52l2.82,0.36
		c5.54,0.71,11.26,0.63,17.02-0.24c-1.11,6-3.07,11.92-5.84,17.62l-1.57,3.22l3.03-1.91c10.68-6.75,19.73-15.9,26.38-26.62
		l-2.58,0.28C288.92,458.4,281.44,466.12,272.75,472.16z"/>
</g>
</svg>
